<svg width="16" height="19" viewBox="0 0 16 19" fill="none" xmlns="http://www.w3.org/2000/svg">
<path d="M15.1591 6H13.0455C12.9205 5.39205 12.7017 4.85795 12.3892 4.39773C12.0824 3.9375 11.7074 3.55114 11.2642 3.23864C10.8267 2.92045 10.3409 2.68182 9.80682 2.52273C9.27273 2.36364 8.71591 2.28409 8.13636 2.28409C7.07955 2.28409 6.12216 2.55114 5.2642 3.08523C4.41193 3.61932 3.73295 4.40625 3.22727 5.44602C2.72727 6.4858 2.47727 7.76136 2.47727 9.27273C2.47727 10.7841 2.72727 12.0597 3.22727 13.0994C3.73295 14.1392 4.41193 14.9261 5.2642 15.4602C6.12216 15.9943 7.07955 16.2614 8.13636 16.2614C8.71591 16.2614 9.27273 16.1818 9.80682 16.0227C10.3409 15.8636 10.8267 15.6278 11.2642 15.3153C11.7074 14.9972 12.0824 14.608 12.3892 14.1477C12.7017 13.6818 12.9205 13.1477 13.0455 12.5455H15.1591C15 13.4375 14.7102 14.2358 14.2898 14.9403C13.8693 15.6449 13.3466 16.2443 12.7216 16.7386C12.0966 17.2273 11.3949 17.5994 10.6165 17.8551C9.84375 18.1108 9.01705 18.2386 8.13636 18.2386C6.64773 18.2386 5.32386 17.875 4.16477 17.1477C3.00568 16.4205 2.09375 15.3864 1.42898 14.0455C0.764205 12.7045 0.431818 11.1136 0.431818 9.27273C0.431818 7.43182 0.764205 5.84091 1.42898 4.5C2.09375 3.15909 3.00568 2.125 4.16477 1.39773C5.32386 0.670454 6.64773 0.306818 8.13636 0.306818C9.01705 0.306818 9.84375 0.434659 10.6165 0.690341C11.3949 0.946023 12.0966 1.32102 12.7216 1.81534C13.3466 2.30398 13.8693 2.90057 14.2898 3.60511C14.7102 4.30398 15 5.10227 15.1591 6Z" fill="white"/>
</svg>
